# xmcd
#
# Track frame offsets: 
#        150
#        13064
#        26775
#        38188
#        50634
#        60111
#        70240
#        83960
#        98130
#        110399
#        123037
#        135621
#        148903
#        159399
#        172733
#        184918
#        214971
#        231264
#        243840
#        255975
#        268439
#        282585
#        295555
#        308935
#        320616
#
# Disc length: 4425 seconds
#
# Revision: 0
# Processed by: cddbd v1.5.2PL0 Copyright (c) Steve Scherf et al.
# Submitted via: ExactAudioCopy v0.99pb5
#
DISCID=6d114719
DTITLE=Various Artist - Delta Blues - The Blues
DYEAR=2013
DGENRE=Blues
TTITLE0=Muddy Waters - I'm Your Hoochie Coochie Man
TTITLE1=B. B. King - Three O'Clock Blues
TTITLE2=Robert Johnson - Dead Shrimp Blues
TTITLE3=Elmore James - Dust My Broom
TTITLE4=Memphis Slim - Rockin' The Blues
TTITLE5=John Lee Hooker - Dimples
TTITLE6=T-Bone Walker - Call It Stormy Monday
TTITLE7=Bo Carter - Banana In Your Fruit Basket
TTITLE8=Little Walter - Juke
TTITLE9=B. B. King - Please Love Me
TTITLE10=Jimmy Reed - Honest I Do
TTITLE11=Robert Petway - Rockin' Chair Blues
TTITLE12=J.B. Lenoir - Don't Touch My Head
TTITLE13=John Lee Hooker - Union Station Blues
TTITLE14=Bukka White - Parchman Farm Blues
TTITLE15=Son House - Walkin' Blues
TTITLE16=Tommy Johnson - Cool Drink Of Water Blues
TTITLE17=B. B. King - Ten Long Years
TTITLE18=Robert Johnson - Cross Road Blues
TTITLE19=Mississippi John Hurt - Candy Man Blues
TTITLE20=Blind Willie McTell - Stomp Down River
TTITLE21=Tom McClennan - Highway No 51
TTITLE22=Muddy Waters - Manish Boy
TTITLE23=Little Walter - My Babe
TTITLE24=T-Bone Walker - Wanderin' Heart
EXTD=
EXTT0=
EXTT1=
EXTT2=
EXTT3=
EXTT4=
EXTT5=
EXTT6=
EXTT7=
EXTT8=
EXTT9=
EXTT10=
EXTT11=
EXTT12=
EXTT13=
EXTT14=
EXTT15=
EXTT16=
EXTT17=
EXTT18=
EXTT19=
EXTT20=
EXTT21=
EXTT22=
EXTT23=
EXTT24=
PLAYORDER=
